/* XPM */
static char *result[] = {
/* columns rows colors chars-per-pixel */
"32 32 210 2 ",
"   c #1C1617",
".  c #161719",
"X  c #1A1718",
"o  c #17181A",
"O  c #1A1A1C",
"+  c #231A17",
"@  c #231C1C",
"#  c #3C1C18",
"$  c #3B241C",
"%  c #3D281E",
"&  c #1E1F20",
"*  c #232324",
"=  c #2A2728",
"-  c #362827",
";  c #373637",
":  c #572819",
">  c #5F3919",
",  c #6F371B",
"<  c #49322C",
"1  c #55342D",
"2  c #443232",
"3  c #683C26",
"4  c #763828",
"5  c #7A4C15",
"6  c #7C5217",
"7  c #5C4233",
"8  c #7A4726",
"9  c #7D502D",
"0  c #6C4D32",
"q  c #694835",
"w  c #785335",
"e  c #454445",
"r  c #574745",
"t  c #5B4C4D",
"y  c #595457",
"u  c #6C5649",
"i  c #715748",
"p  c #605656",
"a  c #655A57",
"s  c #745D54",
"d  c #7C6A5E",
"f  c #665E61",
"g  c #756B67",
"h  c #87381D",
"j  c #85461E",
"k  c #9B4F1A",
"l  c #81501C",
"z  c #B0591B",
"x  c #92601E",
"c  c #AD691A",
"v  c #854B29",
"b  c #87552F",
"n  c #955926",
"m  c #975929",
"M  c #835931",
"N  c #915B30",
"B  c #A34F2E",
"V  c #A15C29",
"C  c #8D642C",
"Z  c #976227",
"A  c #9E702E",
"S  c #8C6033",
"D  c #966634",
"F  c #9B6933",
"G  c #9B7236",
"H  c #A46222",
"J  c #A46A2B",
"K  c #B46C2D",
"L  c #AC782C",
"P  c #B67229",
"I  c #A36C31",
"U  c #A77737",
"Y  c #AB7B34",
"T  c #B57A35",
"R  c #C37A15",
"E  c #CB7E2B",
"W  c #955C45",
"Q  c #815E51",
"!  c #996F51",
"~  c #AB7148",
"^  c #B67E47",
"/  c #BB7A43",
"(  c #B47F52",
")  c #8A7469",
"_  c #857472",
"`  c #947B70",
"'  c #BC8517",
"]  c #AF8D2B",
"[  c #B58527",
"{  c #BA9028",
"}  c #AB8436",
"|  c #BC8D34",
" . c #B58538",
".. c #BC8F3A",
"X. c #BD9836",
"o. c #C78F0F",
"O. c #DC9C07",
"+. c #C88415",
"@. c #D28913",
"#. c #CC9619",
"$. c #D89A19",
"%. c #DBA209",
"&. c #CEA011",
"*. c #D2A316",
"=. c #DFB41B",
"-. c #E1A60A",
";. c #E8AF14",
":. c #E6BA18",
">. c #C9872B",
",. c #CB8D2C",
"<. c #D4892E",
"1. c #C79823",
"2. c #D89928",
"3. c #C58C38",
"4. c #CA9333",
"5. c #C69738",
"6. c #D69937",
"7. c #D2953C",
"8. c #D6A721",
"9. c #D8A92A",
"0. c #CBA23D",
"q. c #D9A639",
"w. c #DBB43A",
"e. c #E4A725",
"r. c #E3B927",
"t. c #E5B838",
"y. c #E2BB3C",
"u. c #E7C637",
"i. c #B88846",
"p. c #BF9D4C",
"a. c #8C8079",
"s. c #A58872",
"d. c #B2927E",
"f. c #C59947",
"g. c #CE9448",
"h. c #C29B4D",
"j. c #C79D54",
"k. c #E19F58",
"l. c #C6A247",
"z. c #CEA644",
"x. c #D5A548",
"c. c #DEB543",
"v. c #DBB54A",
"b. c #CEA653",
"n. c #D4A352",
"m. c #DBAC51",
"M. c #D4A25C",
"N. c #DBB759",
"B. c #E2B846",
"V. c #C99C76",
"C. c #D7AA65",
"Z. c #DAB766",
"A. c #CEA176",
"S. c #D5A572",
"D. c #D8B279",
"F. c #E2B866",
"G. c #E2BF73",
"H. c #DEC15D",
"J. c #E4C246",
"K. c #E3C25B",
"L. c #E2D35F",
"P. c #DFC671",
"I. c #E5D36C",
"U. c #E6D177",
"Y. c #887F82",
"T. c #888584",
"R. c #958B84",
"E. c #968C89",
"W. c #9F928A",
"Q. c #AD9684",
"!. c #A7958B",
"~. c #A49995",
"^. c #ACA49B",
"/. c #B7A496",
"(. c #B2A99E",
"). c #ACA7A1",
"_. c #B5ACA3",
"`. c #B8AEA4",
"'. c #BAB1A6",
"]. c #BDB4AB",
"[. c #BBB4AD",
"{. c #BBB6B7",
"}. c #CBAE8D",
"|. c #D6BC93",
" X c #C6B4A3",
".X c #C0B6AD",
"XX c #C1B9AF",
"oX c #C3BCB3",
"OX c #C2B9B6",
"+X c #CBBFB3",
"@X c #DCCB8E",
"#X c #DDD794",
"$X c #E0DB9D",
"%X c #D8C4AF",
"&X c #C7C0B7",
"*X c #C6C1BA",
"=X c #CBC4BC",
"-X c #D5C7B6",
";X c #CDC6C0",
":X c #CEC9C2",
">X c #D1C7C1",
",X c #D2CBC5",
"<X c #D4CEC9",
"1X c #D6D1CC",
"2X c #D9D3CD",
"3X c #DBD6D1",
"4X c #DDD9D4",
"5X c #E1DCD6",
"6X c #E2DDDA",
"7X c #E3E0DC",
/* pixels */
"3X1XoX<X2X<X=X<X1X'.3X<XOX>X>XoX>X,X;X].,X,XXX<X<XXX>X>X,X].,X;X",
"6X4XoX<X4X1X>X1X3XoX3X<X>X2X1XoX>X2X2X+X1X1XXX2X2X;X<X<X,X(.<X<X",
",X].3X3X=XoXoX<X,X+X<X3XoX].oX`.>X<X;X].>X=X_.:XoX+X{.].;X>X_.oX",
"3X>X3X4X<X:X4X;X'.=XXX.X>X<X>XoX`.oX+X`.oX,X:X_.>X3X=X;X1X1X=X;X",
"5X3XoX2XXX3X1X1X+X4X4X=X+X/.s.}.|.A.i.Q.`.2X<X[.2X3X2X_.*X*X2X<X",
"5X3X].>X3XoX>XoX3X<X}.A.M.,.<.<.2.2.E m 8 !.[.].].3X{.:XOX`.,X:X",
"=X>X;X4X4X1X[.=X/.5.n.<.,.q.x.q.B.e.9.5.3.J b ~.=X].,X<X2XXX*X{.",
"7X4XoX4X4X=X<X%Xg.V 3.m.q.e.e.e.4.q.y.w.x...L v R.&XXX2X:X=X<X<X",
"4X4X=XoXOXoX4XC.K 7.n.2.@.z ~ 4 Q v C.K.8.h.f.U n _ :XoX[.=X2X,X",
"&X=X].>X4X1X|.g.7.N.x.x.k r ~.@ 1 , k -.O.@.c.b.L 9 R.3XoX].oX'.",
"6X4X=X3X<X-X/ 7.G.2.k.;.j y * y p 1 j @.O.z E V Y F w =X`.,X<X>X",
"4X4X:X=X1XV.E x.B.<.h k i.+ O f f 2 - 8 +.P N j 3.b.M _.(.<X1X<X",
"<X=XoXXX-Xx.>.h.I.:.v F p.. o 2 < _   = $  XS.R =.X.G s.=X{.XX[.",
"1X3X&X1X|.q.4.#XI.%.F N.X.+ o T.i d f = & f r l c #.j.! *XoX1X,X",
"3X3X<X=X|.>.x.#XL.8.1.w.] % o t i 1 y & o O *   + ] l.D ~.XX1X,X",
"<X<X=X&XM.E n.@XI.9.{ ' } % & r !.` y @ O e ; = = G 5.S g XX=X=X",
"<X=X X=X( >.C.$XH.+.6 U X.> = y .XQ ; & . e Y.Y.- c } 0 a &X=X=X",
"7X5X{.3XT 6.Z.B./ # e _ x > & y OX~.. . X * ; E.: H G 0 a.1X2X=X",
"7X3X&X3Xi.~ 6.E W o * @ 5 } 6 O {.g . & * y t h , J Y 0 [.=X2X&X",
"=X&XXX<Xd.N v.2.B - o . w 1.z.x ) @   2 9 ^ +.2.R T ~ s _.].&X].",
"5X3X,X]..XF h.B.<.4   X /.H.w.q.>.,.6.q.t.y.-.O.o.J G E.].,X2X=X",
"5X3X=X=X3X! T m.F. .: : i.K.8.*.t.I.e.t.u.:.-.#.[ } w =X:X=X2X:X",
"&X=X&X2X2X~.Y 7.Z.Z.f.f.z.I.c.*.N.U.-.$.u.:.8.f.0.D a.<X=X(.].`.",
"2X2XXXXX,X=Xi l.c.H.v.K.v.I.y.*.P.J.$.z *.r...z.Y 7 ^.].(.=X:X=X",
"2X3X&X3X<X].*X/.3.m.q.v.B.J.r.:.u.=.c.9.#.X.| G q ^.&X<X=X=X1X*X",
",X1X=X3X3X=XoX3X!.m n K 5.N.w.9.&.#.0.5.h. .D 0 R.'.2X1X1XoX=X'.",
"3X,XXX2X2X=X2X&XD.S n Z 8 m 4.4.q.5.L I b 8 7 (.&X=XoX1XoXoX<X=X",
"5X3X-X:X&X4X3X=X) A S C  .L m m n Z 8 3 1 _ *XXX2X2X<X`.=X[.2X:X",
"4X=X4X4X=X<X3X<X'.oXW.d a.Q d a u u y R.^.'.&X].<X3X*X=X3X:X:X=X",
"=X&X4X-X*X{.=X=X=XXX=X:X].&X,X{.{.&X).[.1X<X[.:X=X].].&X<X=X].=X",
"6X2XXX2X3X<X1X3X2X=X4X3X=X2X2X*X=X2X2X&X1X1X*X1X2X=X:X1X*X`.2X:X",
"4X4X=X2X4X<X=X2X1XXX2X1X&X=X<X*X:X1X<X&X<X<X].<X<XoX:X<X=X].=X&X"
};
