/* XPM */
static char *result[] = {
/* columns rows colors chars-per-pixel */
"32 32 42 1 ",
"  c #5673AF",
". c #5973AF",
"X c #5774B0",
"o c #5A73B0",
"O c #7B8FBB",
"+ c #7C90BB",
"@ c #8495BC",
"# c #94A3C5",
"$ c #98A6C7",
"% c #9DA9C6",
"& c #96A6C8",
"* c #9EA9C8",
"= c #B5BFD5",
"- c #B6C1D5",
"; c #BEC5D1",
": c #C7CBCD",
"> c #C8CBCD",
", c #C0C4D2",
"< c #C4CBD5",
"1 c #C2CADB",
"2 c #C9D1DF",
"3 c #D1D7DC",
"4 c #D2D8DC",
"5 c #CCD4E1",
"6 c #D0D5E2",
"7 c #D4DAE4",
"8 c #D9DEE7",
"9 c #D9DEE8",
"0 c #DBE2E7",
"q c #DDE3EA",
"w c #E3E5E6",
"e c #E7E8E7",
"r c #E8E9E7",
"t c #E0E5EC",
"y c #E2E8EF",
"u c #E8E9E8",
"i c #EDEFF3",
"p c #EDF0F2",
"a c #F5F8F7",
"s c #F5F7F8",
"d c #F6F8F9",
"f c #FEFEFE",
/* pixels */
">3;;<rw<,rr<;;4>>4;;<rw<<wr<,;4>",
"3y618q#52#q715y44y517q#22#q715y3",
";2opa&ffff$ap.2;;5.pd&ffff&dp.2,",
";1pq58fsdf96qp1;;1pq59fdaf85qp1,",
"<7d5%qf@@fq*6d7<<7a5*qf@@fq*7a71",
"uq&8q-q##q-q0&quuq%7q-q##t-q0#qu",
"w&fffq+-=Oqfff&ww#fffq+==Oqfff#w",
"<2fd@#=00=#@df2<<2fd@#-qq=#@df2<",
"<2fa@#=00-#@df2,<2fd@#=80=#@df1<",
"w#fffqO==Otfff#ww#ffftO=-+qfff#r",
"rq&8q-q##t=q0&queq#9q=t##q-q9&qr",
"<7a6*0f@@ft*6a7<<7a6%tf@@f0%5d7<",
",1pq60fadf85qp1,;1pq68fadf02yp;;",
";5.pa&ffff$dio2;;2.pa&ffff$dpX5;",
"3y217q#52#9715y34y517q#25#q715y6",
">3;;<ew<<we<;,3>>4;;<rw<,wu<;,6>",
">3;,<ew,<0u<;;4>>4;;<uw<,we<;;3:",
"4y217t#22#q715y44y517q#22#q715y3",
";5Xpd#ffff#ap 5,;5Xpd&ffff&dp.2;",
";1pq69fadf06qp1,;1pq69fddf85qi1,",
"<7a6%qf@@fq*6a7<<7s5%qf@@fq*7s7<",
"uq$9q-t##q-q8&9uuq&8q-q##t-q9&qe",
"w#ffftO==Otfff#wr#fffq+-=Oqfff#w",
"<2fa@#=00=#@df2<<5fs@#=09=#@df2<",
"<2fd@#=q0=#@af2<<2fd@#=9q=#@df2<",
"w#ffftO==Oqfff#ww#ffftO==Otfff#w",
"rq%9q-q##y-q9&que9$8q=t##t-q8$qe",
"<7d5%qf@@fq*5a7<<7d5%tf@@fq*3d7<",
";1iq59fdaf85qp1;,1iy69fdsf86qi;1",
";5Xid#ffff&dp.5;;5 pd#ffff$aiX5;",
"4y5170#22#q715y44y217t#22#t712q4",
">3,,<ut<<wu1;;3>>4;;<uw<,we1;<3>"
};
