/* XPM */
static char *e8d0b17f94b842ceb54c571514375c01sLch6RAFy4ubAx7W[] = {
/* columns rows colors chars-per-pixel */
"32 32 165 2 ",
"   c #B1A79E",
".  c #B2A99E",
"X  c #B6ADA3",
"o  c #B9AFA3",
"O  c #BAB1A6",
"+  c #BEB5AB",
"@  c #BFB8B0",
"#  c #C0B6AD",
"$  c #C1B9AF",
"%  c #C0B7B1",
"&  c #C4BCB3",
"*  c #C8BFB6",
"=  c #C7BFB8",
"-  c #C9BFB8",
";  c #C6C0B7",
":  c #C8C0B7",
">  c #C7C0B9",
",  c #CAC3BC",
"<  c #D0C8BF",
"1  c #CDC7C0",
"2  c #CEC9C2",
"3  c #D1CAC3",
"4  c #D0CAC3",
"5  c #D3CAC3",
"6  c #D2CBC3",
"7  c #D1C9C1",
"8  c #D0CAC4",
"9  c #D1CBC4",
"0  c #D1CAC5",
"q  c #D1CBC5",
"w  c #D2CAC4",
"e  c #D2CBC4",
"r  c #D3CBC4",
"t  c #D2CAC5",
"y  c #D3CAC5",
"u  c #D2CBC5",
"i  c #D0CAC6",
"p  c #D0CBC6",
"a  c #D1CBC6",
"s  c #D2CBC7",
"d  c #D2CCC5",
"f  c #D3CCC5",
"g  c #D3CDC5",
"h  c #D3CDC6",
"j  c #D2CCC7",
"k  c #D3CDC7",
"l  c #D3CEC6",
"z  c #D3CEC7",
"x  c #D4CCC6",
"c  c #D4CCC7",
"v  c #D4CDC7",
"b  c #D4CEC7",
"n  c #D5CEC7",
"m  c #D2CBC5",
"M  c #D3CCC8",
"N  c #D2CDC8",
"B  c #D3CDC8",
"V  c #D3CDC9",
"C  c #D2CEC9",
"Z  c #D4CEC8",
"A  c #D5CEC8",
"S  c #D5CFC8",
"D  c #D5CEC9",
"F  c #D4CFC9",
"G  c #D6CFC9",
"H  c #D4CFCB",
"J  c #D7CFCA",
"K  c #D4CEC9",
"L  c #D5D0C9",
"P  c #D6D0CA",
"I  c #D7D0CA",
"U  c #D6D0CB",
"Y  c #D7D1CB",
"T  c #D7D0CC",
"R  c #D6D1CC",
"E  c #D7D1CC",
"W  c #D7D2CC",
"Q  c #D6D2CD",
"!  c #D7D2CD",
"~  c #D6D3CD",
"^  c #D5D2CE",
"/  c #D6D2CE",
"(  c #D7D2CE",
")  c #D7D3CE",
"_  c #D7D2CF",
"`  c #D7D3CF",
"'  c #D7D4CE",
"]  c #D6D2CC",
"[  c #D8D0CA",
"{  c #D9D0CB",
"}  c #D9D1CB",
"|  c #D9D2CB",
" . c #D8D2CC",
".. c #D9D2CC",
"X. c #D8D3CC",
"o. c #D8D2CD",
"O. c #D9D2CD",
"+. c #D8D3CD",
"@. c #D9D3CD",
"#. c #DAD2CD",
"$. c #DAD3CD",
"%. c #D8D2CE",
"&. c #D8D3CE",
"*. c #D9D3CE",
"=. c #D8D3CF",
"-. c #D9D3CF",
";. c #DBD3CE",
":. c #D8D4CE",
">. c #D9D4CE",
",. c #D9D5CE",
"<. c #D8D4CF",
"1. c #D9D4CF",
"2. c #DAD4CF",
"3. c #DAD5CF",
"4. c #D9D4CE",
"5. c #D7D5D1",
"6. c #D8D3D0",
"7. c #D9D4D0",
"8. c #D9D5D0",
"9. c #D9D4D1",
"0. c #D9D5D1",
"q. c #DBD4D0",
"w. c #DAD5D0",
"e. c #DAD5D1",
"r. c #DBD6D0",
"t. c #DAD6D1",
"y. c #DBD6D1",
"u. c #D9D5D2",
"i. c #DAD5D2",
"p. c #D9D6D2",
"a. c #DAD6D2",
"s. c #DBD6D2",
"d. c #DAD7D2",
"f. c #DBD7D2",
"g. c #DAD6D3",
"h. c #DBD6D3",
"j. c #DAD7D3",
"k. c #DBD7D3",
"l. c #DCD7D1",
"z. c #DCD6D2",
"x. c #DCD7D3",
"c. c #DAD5D1",
"v. c #DED9D3",
"b. c #DBD8D4",
"n. c #DCD8D4",
"m. c #DDD8D4",
"M. c #DCD8D5",
"N. c #DDD9D5",
"B. c #DED8D4",
"V. c #DDDAD5",
"C. c #DEDAD5",
"Z. c #DFDAD5",
"A. c #DCD9D6",
"S. c #DDDAD6",
"D. c #DEDAD6",
"F. c #DEDBD6",
"G. c #DEDAD7",
"H. c #DEDBD7",
"J. c #DCD8D4",
"K. c #DEDBD8",
"L. c #DFDBD8",
"P. c #DFDBD8",
"I. c #E1DCD5",
"U. c #E2DDD9",
"Y. c #E2DEDA",
/* pixels */
"w.^ , s ^ B > B V O ;.s & z s & 2 3 , # n s # V n & 3 3 s + s , ",
"U.S.& z x.w.3 ' x.& w.;., ^ $.* 3 $.{ - V L # ;.V 1 n V 3   n V ",
"z + ;.w., : & z V = B M.& O & O , { , # z > o , * * @ + , s X & ",
";.B L S.;., x.2 + > % O 3 $.5 # o & , O & 2 s X s w.> 2 ;.;., , ",
"v.x.& $.$ w.^ 7.* S.w.1 < ^ ;., - #.J s , w.B + ;.w.^ X 2 > $.z ",
"v.3.$ , S.* 2 & ^ M.w., > & * V , { 7.r + ;.z $ + w.& B , X s 2 ",
", 6 > U.S.w.+ , + L 2 ;.v.w.- ;.q.& & & , + & $.2 o 2 3.' & * @ ",
"v.P.> x.P.> s P.M.& O , ^ s V w.7.- s w.' & < ^ ;.> & ' 2 > B B ",
"v.I.s + & & S.S.M.* ;.1 & + n w.6.= * w.b.> + ^ ' + L & O , ^ B ",
": > O 3 M.M.* 6.& z w.w.; 3.& n , * 2 , , O z & @ , ' w.> + & O ",
"S.S.2 $.;.w.& & 1 + w.B 3 w.7.# + w.3.2 O L ^ ;.X & w.' O 6 V s ",
"w.b.B : L * < S.p., + + x.w.2 = , ^ w.w.O 3 w., , B & , . n V s ",
"3 , * & 2 2 > S.b.1 s , & 2 = w.^ & , + V 2 & + w.' & , , + & + ",
"L v., z w.w.- V * ^ ;.S.* o L ;.w., X s b.w.B X 2 3.@ ' ^ & ^ 2 ",
"3.w.^ * M.n , c B 2 M.L + , O 3., , V + 2 M.; , z + @ ^ B + ;.2 ",
"n r 3 + V ^ S.M.b.B = > w.b.3.O - w.7.3.& # z w.3.^ B & + & > , ",
"V 2 O = 2 ^ b.b.b.2 & > x.x.2 * # n w.B = * 2 ' ' 5.< > X * , , ",
"U.P.* ;.7.$ , L 2 , ;.2 # > & ^ 7.% * $ ^ w.& , > > n V + z L 1 ",
"U.S.> x.M.> S.1 # 3.x.3., o s ;.M.2 + & ' ^ , * 2 & L L , , ^ & ",
"< = # 3 , n b.^ & & s ^ * V & ' ' = w., & > 2 5.w.@ 2 , O + > @ ",
"l.3.,.O 2 > M.* n S.* # w.b.2 * & ^ b.M.+ o 2 M.w.& & z @ s L 2 ",
"I.l.n > b.L * $ 3.w.L + w.b.5.o + w.A., 2 N O , + > L 3.2 > L 2 ",
"* : : n w.' , - > L O V * z & ^ s & * , 6.5.1 @ s $ ^ ^ , X + o ",
"3.3.> # , L > S.;.o ;.S.3.O 3.b.w.2 O & 1 L , ^ ' B O +   , 2 , ",
"3.3.> 3.^ + L S.b., 2 S.b.* L w.b., ' b., O ; ,.L > * L 1 , L , ",
"5 n > v.v.2 & w.' & # s & , > w.' & 3.,.l 2 2 @ @ O ' L L & , X ",
"I.n + n ^ > w.& > v.6.O L S.2 L < @ $ ; > ' p.2 & z @ L + & B 2 ",
"I.3., V & v.b.w.* S.b., V S.w.2 > 3.L ; , ] ~ & 3.,.L X s @ w.2 ",
"3.2 b.w.s 2 w.B O ;.z * & , $ O @ , S > O O * o 2 ^ > 2 ^ s 2 > ",
"n & L z : & , 2 2 O , L @ , L & & ; + + ' L & 2 , & O & 2 > + , ",
"I.v.# L b.6.z w.5.; b.V., ' 3.> < 3.,.; b.^ > b.w., 2 J , o ;.2 ",
"3.v.2 n ^ B * z z + ' 2 & , 3 > 2 z 6 & 2 2 + 2 2 & 1 2 1 # , % "
};
