/* XPM */
static char *_b541aaf0b234099eea0fd6bba9d12d2jBbcckM1XG2KlRb1[] = {
/* columns rows colors chars-per-pixel */
"32 32 191 2 ",
"   c #1E150E",
".  c #21150E",
"X  c #221912",
"o  c #251A14",
"O  c #341E16",
"+  c #3A2019",
"@  c #3F2A1A",
"#  c #332D28",
"$  c #3A3A3A",
"%  c #43301B",
"&  c #50311C",
"*  c #7A461F",
"=  c #524323",
"-  c #5E5329",
";  c #7D4B28",
":  c #635726",
">  c #776B2A",
",  c #133B50",
"<  c #264657",
"1  c #1A4C64",
"2  c #0F506E",
"3  c #1E516B",
"4  c #0B5676",
"5  c #0C5678",
"6  c #155470",
"7  c #135F7F",
"8  c #325468",
"9  c #225E76",
"0  c #3F6477",
"q  c #4C4643",
"w  c #4A4847",
"e  c #56514B",
"r  c #5C524C",
"t  c #4B5256",
"y  c #595857",
"u  c #625C57",
"i  c #68625D",
"p  c #77675B",
"a  c #52656B",
"s  c #4F747B",
"d  c #54757D",
"f  c #6E6C68",
"g  c #736B66",
"h  c #7A726D",
"j  c #646D73",
"k  c #67727B",
"l  c #7A7673",
"z  c #7B7B7A",
"x  c #834D26",
"c  c #915429",
"v  c #BB7231",
"b  c #C56C1D",
"n  c #C96C1C",
"m  c #CC731D",
"M  c #D97016",
"N  c #D2731F",
"B  c #E27A16",
"V  c #C46B25",
"C  c #CF7C2D",
"Z  c #D67A29",
"A  c #AF7D4D",
"S  c #897869",
"D  c #907F6E",
"F  c #857A73",
"G  c #837D7A",
"H  c #907F72",
"J  c #7D817F",
"K  c #E9851B",
"L  c #F48D1B",
"P  c #F8931E",
"I  c #D98124",
"U  c #C3942B",
"Y  c #DB9130",
"T  c #E88A2B",
"R  c #F19824",
"E  c #FE9B21",
"W  c #E5A82B",
"Q  c #F2A724",
"!  c #FAAC26",
"~  c #FCB127",
"^  c #FCB128",
"/  c #FBC932",
"(  c #EBD03A",
")  c #F6D637",
"_  c #FADE34",
"`  c #F9DF39",
"'  c #BA854E",
"]  c #85807D",
"[  c #8C827C",
"{  c #958272",
"}  c #96877A",
"|  c #B69361",
" . c #AF917C",
".. c #BF9D7D",
"X. c #D68848",
"o. c #D5A749",
"O. c #D89563",
"+. c #C19E7D",
"@. c #1B6B87",
"#. c #1C6A88",
"$. c #2D6E87",
"%. c #267894",
"&. c #2B7E9A",
"*. c #426D80",
"=. c #45788A",
"-. c #31879F",
";. c #3187A1",
":. c #3088A1",
">. c #3C94AC",
",. c #3C9CB6",
"<. c #4F8695",
"1. c #7E8282",
"2. c #5895A5",
"3. c #5298A9",
"4. c #44A5BC",
"5. c #48A3BB",
"6. c #47AFC8",
"7. c #4EB6CC",
"8. c #56B6CA",
"9. c #878986",
"0. c #938C87",
"q. c #988E87",
"w. c #9C9084",
"e. c #97918E",
"r. c #99928D",
"t. c #839091",
"y. c #9D9992",
"u. c #A59382",
"i. c #AC9782",
"p. c #A1968B",
"a. c #AB9A8A",
"s. c #BB9783",
"d. c #A49C94",
"f. c #A99D94",
"g. c #A49E9B",
"h. c #ABA195",
"j. c #A7A39D",
"k. c #ABA39B",
"l. c #B1A79C",
"z. c #B8A798",
"x. c #B5A99D",
"c. c #80A6B1",
"v. c #ABA6A1",
"b. c #ABAAA5",
"n. c #ACAFA9",
"m. c #B0A7A1",
"M. c #B5ACA2",
"N. c #B8AEA3",
"B. c #B6AFA9",
"V. c #BAB1A7",
"C. c #BDB4AB",
"Z. c #BFB9AD",
"A. c #ADB4B0",
"S. c #BCB7B2",
"D. c #BDBEBE",
"F. c #C7A78A",
"G. c #C8B19C",
"H. c #C1B6AC",
"J. c #C2B9AE",
"K. c #C8B9AB",
"L. c #C3BCB3",
"P. c #C8BFB5",
"I. c #C4BEB8",
"U. c #DEC9AC",
"Y. c #C7C0B7",
"T. c #CAC1B6",
"R. c #C6C1BA",
"E. c #CBC4BC",
"W. c #CEC8BE",
"Q. c #D4CABC",
"!. c #E6D3B5",
"~. c #B2BFC4",
"^. c #CDC7C1",
"/. c #CEC9C2",
"(. c #D2CCC5",
"). c #D4CFC9",
"_. c #D6D2CC",
"`. c #D9D3CD",
"'. c #D7D4D0",
"]. c #DAD6D1",
"[. c #DDD9D4",
"{. c #DDD9D5",
"}. c #DFDCD9",
"|. c #E1D3C2",
" X c #EADDCC",
".X c #E0DCD7",
"XX c #F7E3C8",
"oX c #EEE2D1",
"OX c #EDE3D4",
"+X c #F1E4D3",
"@X c #F2E6D5",
/* pixels */
"}.}./.E.[.[.[.E./.V.B.d.k.j.j.d.j.g.j.q.b.V.H.L._.)._.V.[.`.`.L.",
"[.R.P.).E.).^.W.S.q q u u y r e o w # i g   [ C.`.(._.V.).).^.B.",
"P.L.[.[.[.^.H.E.M.i g y.[ 0.e.w.h g g 0.0.# h x.H.C.L.C.V.M.E._.",
"[.].L..X[.P.`.[.^.z S.p } p.h.z.i.{ S F [ D.] W.H._.`._.l.).`.].",
"].].J.).P.H.].].`.V.|.oX@X@X@X X`.z.i.i.i.i.{ h.V.`._./.L.^.`.].",
"[.[.P.H.`.].(.OXQ.L.l.l.H.a.p.p.w.} 0. .F F } w.w.S._.).J.x.)._.",
"P.E.J..X[..XP.0.p.d.p.x.J.V.M.d.x.x.l.h.h.k.k.p.{ q.I.C.(.).V.C.",
"[.[.P.)..X`. X+X@X+XoXoX+X@X@XE.`.+X+XoXOXoX@X@X X Xz.).].`.).M.",
"].}.).C.[.Q.@XL.l j =.G (.j , , , < d.J.k 8 j z Q.|.x.Q._.`.`.V.",
"].[.^.M.S.L.g.d.8 4 5 1 E.2 3 1 5 4 z l.5 5 5 $ K.r h.V.(.`.I.E.",
"I.R.L.k.$ ).H g.8 @.7 6 Q.1 < 1 3 3 H m.7 7 @.w L.p H.`.L.Z.V.(.",
"[.].).d.$ ).S B.0 #.#.9 ^.< 9 $.7 #.=.v.$.#.#.t P.S K.).].L.M.W.",
"].[.].q.f _.{ B.*.%.%.$.P.8 &.&.%.%.9.v.%.%.%.t P.S P.]._.V._.R.",
"].]._.x.R.).a.v.=.&.>.=.P.&.;.>.;.-.1.n.;.:.;.t K.D H.(.C.).`.].",
"E.P.I.L.].).u.b.=.3.>.2.P.>.,.8.4.,.t.n.3.>.>.a K.{ P.L.N.`.]._.",
".X[.].C.[./.u.v.v.~.4.2.E.5.6.7.7.6.t.A.5.6.c.j P.{ E.).l.L.E.R.",
"].].[.H.`.).i.g.p J s a R.<.3.3.3.3.9.b.d d d y T.{ P.H.(.].E.J.",
"(.^.^.H.P.^.u.K.V.G.G.G.G.+.F.s.....F.F.+.+. ...G.{ H._.`.].`._.",
"(.P.J.H.W.W.f.T P ! E E E ! E E E E E E E P M M m H N.`.'.'.`.].",
"}..XE.P..XP.V T P P E E P P E E E E E E P K M M n x x.V._.`.L.E.",
"}.[.I.).[.(.n I E E E E E E P E E E E E E K M M b x C./.M.J.x.`.",
"`.).J.].`.`.m T E E E E E E R ' A R E E P B M M b x H.J.).].R.L.",
"/.^.L.J.R.E.Z I E E E E E E ' XXU.I P E L M M M n x l.].'.'.`.V.",
"[.].`.J.^.).I N E E E E E E ' !.F.N E E K M M M V ; x./.[._._.V.",
"[.].].B.`..XX.Z ! ! ! ~ ! ^ W U U Q ~ ~ P T K K v * ^.N.^.P.M.`.",
"P.(.(.P.].).O.Y _ ( | ) _ _ _ _ _ _ _ ) O.C E R b ; ].^.B.P.I.R.",
"(.E.L.N./.'.z.Y / ) o.) _ ` ` _ ` _ ` / Y Y R I c k.`.L.(._.`.L.",
"`.].`.H./.Y.L. .& - > > > : = & % = - = @ O     g l.L.(.`._._./.",
"_.`.E._.[.[.J.y       X . . . o X       X     i `.L.V.C.(.`.W.C.",
"E.(.L.`.'.[.h.r   q i + + O O o + + + + + o e.b.'.L.[._.Z.C.l.Z.",
"[.).L.R.[./.Z.S.M.C.F + + + O + + + + + + r.C.Z.Y._._.'.`.V._.^.",
"[.[.R._.L.Y.[.].[.Z.0.r.0.0.] e.e.e.[ 9.[ r._.E.Z._._.`.R./.`.'."
};
