/* XPM */
static char *result[] = {
/* columns rows colors chars-per-pixel */
"32 32 188 2 ",
"   c #1E150E",
".  c #21160E",
"X  c #2B1A0F",
"o  c #221812",
"O  c #251A14",
"+  c #371F19",
"@  c #32230F",
"#  c #2D2112",
"$  c #372812",
"%  c #3A211A",
"&  c #322D29",
"*  c #342E29",
"=  c #3C3936",
"-  c #452919",
";  c #54491E",
":  c #7A461F",
">  c #514832",
",  c #7C4C29",
"<  c #6D612C",
"1  c #1F3947",
"2  c #123B50",
"3  c #15435B",
"4  c #2D4750",
"5  c #20495D",
"6  c #3D4750",
"7  c #0D4864",
"8  c #0C4C6B",
"9  c #164C66",
"0  c #0E597A",
"q  c #214B60",
"w  c #2F5F70",
"e  c #454444",
"r  c #544A45",
"t  c #474F55",
"y  c #45545C",
"u  c #4C545A",
"i  c #5C5A57",
"p  c #62534C",
"a  c #665E58",
"s  c #68625E",
"d  c #75655D",
"f  c #495B65",
"g  c #525E66",
"h  c #4C646F",
"j  c #556C75",
"k  c #6B6662",
"l  c #736C66",
"z  c #78736C",
"x  c #7C7773",
"c  c #F21710",
"v  c #EB271B",
"b  c #F02015",
"n  c #EE2C22",
"m  c #B8671C",
"M  c #824E27",
"N  c #A05926",
"B  c #BE6925",
"V  c #C66B19",
"C  c #CA6B1C",
"Z  c #D97015",
"A  c #E47C18",
"S  c #C96C26",
"D  c #CA7827",
"F  c #C57B2A",
"G  c #DE7D24",
"H  c #D57B2A",
"J  c #D07F33",
"K  c #BC7A4D",
"L  c #837464",
"P  c #8F7E6E",
"I  c #847C75",
"U  c #8A7D73",
"Y  c #847E79",
"T  c #B58727",
"R  c #B08835",
"E  c #E9861B",
"W  c #F0871A",
"Q  c #F5931E",
"!  c #FB971D",
"~  c #CE8033",
"^  c #DD913E",
"/  c #E68B21",
"(  c #EA9725",
")  c #F69A27",
"_  c #FE9B21",
"`  c #FB9D2D",
"'  c #E79B38",
"]  c #F29832",
"[  c #FBAC26",
"{  c #F4AE2C",
"}  c #F6CA31",
"|  c #FBD134",
" . c #FADD34",
".. c #FAE13D",
"X. c #8B847E",
"o. c #938273",
"O. c #97887A",
"+. c #9B8979",
"@. c #CF9158",
"#. c #D8AF4C",
"$. c #D58E65",
"%. c #CE9677",
"&. c #EACF5F",
"*. c #166483",
"=. c #196382",
"-. c #1F718D",
";. c #2F7187",
":. c #21708E",
">. c #2B7F9B",
",. c #2B809A",
"<. c #31819C",
"1. c #368DA6",
"2. c #378EA7",
"3. c #3892A9",
"4. c #3B9AB2",
"5. c #6D848A",
"6. c #428FA0",
"7. c #4891A3",
"8. c #5093A2",
"9. c #439DB5",
"0. c #48A5BC",
"q. c #44AAC4",
"w. c #58B7CE",
"e. c #56B8CC",
"r. c #8D8681",
"t. c #978E86",
"y. c #938E89",
"u. c #988F88",
"i. c #9E9184",
"p. c #99938D",
"a. c #9D9994",
"s. c #AA9783",
"d. c #A5978A",
"f. c #A49D95",
"g. c #AB9D92",
"h. c #A49E99",
"j. c #B2A08F",
"k. c #A9A197",
"l. c #A6A099",
"z. c #ACA49D",
"x. c #B5A392",
"c. c #B3A69D",
"v. c #B4A99D",
"b. c #BAAA99",
"n. c #82A2A7",
"m. c #ADA6A1",
"M. c #AEAAA6",
"N. c #B1A7A1",
"B. c #B5ABA2",
"V. c #B9AEA3",
"C. c #B2AEA9",
"Z. c #BBB1A6",
"A. c #B6B1AD",
"S. c #BDB4AB",
"D. c #BFB7B0",
"F. c #D3A58E",
"G. c #C0B19E",
"H. c #C4B4A3",
"J. c #C0B6AD",
"K. c #C3B9AE",
"L. c #C4BCB3",
"P. c #C9BFB3",
"I. c #C7BFB8",
"U. c #C6C0B6",
"Y. c #CBC2B5",
"T. c #C6C2B9",
"R. c #CBC4BC",
"E. c #CCC8BE",
"W. c #D2C7BC",
"Q. c #ADC0C9",
"!. c #CDC7C1",
"~. c #CEC9C2",
"^. c #CFCDCA",
"/. c #D2CBC5",
"(. c #DACFC1",
"). c #D5CFC9",
"_. c #DDD3C5",
"`. c #D6D2CC",
"'. c #D9D4CE",
"]. c #DAD6D1",
"[. c #DDD9D4",
"{. c #E1D6C6",
"}. c #E6DACA",
"|. c #EDDFCF",
" X c #E1DBD5",
".X c #E2DDD9",
"XX c #EDE2D2",
"oX c #F2E6D5",
/* pixels */
"].`.`.J.).`.].J.).`.).Z.~.`.!.L././.!.V.`.~.R.V.~././.V.)././.B.",
".X[.[.J.[.[.[.I.`.N.N.g.z.z.l.f.h.h.h.t.m.B.S.I.).).`.S.[.).'.I.",
".X/.L./.!.!.`.L.`.s * l z k i i e e & k z * I S.{.).).B.).).R.B.",
"R.R.~.[.[.'.J./.R.l i a.y.y.y.x a r r p.y.Y I B.Z.S.I.J.S.B./.'.",
" X[.L.]. X!.).].[.a ^.O.k.b.H.H.G.s.o.o.P A.x !.S.'.].^.N.'.'.[.",
" X].).J.R.L.!.[.XXY.}.oXoXoXoXXX}.H.s.s.x.x.+.s.N.[.)./.L.R.].'.",
"].).!.L.).[./.{.K.c.p.i.c.O.L L d d o.o.p r P d.i.B.'./.S.V./.^.",
"~./.I.`. X[._.c.K.S.Y.P.Y.Y.Y.A.L.W.P.K.P.K.P.K.z.g.V.J.`.'.S.V.",
" X[.[.J. X`.oX{.XXW._.}.XX_.Y.Z.S.Y._.|._._.).XX{.|.B.).'.'.'.B.",
" X[.[.S.R.R._.J.6 7 8 3 T.2 8 3 8 8 u L.7 8 7 e (.H.V.I.'.'./.J.",
"~./.I.S.p.C.U N.y 0 0 0 R.7 q 9 0 0 f I.0 0 0 e P.> g.I.I.`.Z./.",
").).`.I.e a.+.h.y =.=.0 !.1 4 3 9 5 u I.=.*.=.t P.L I.'./.V.J.`.",
" X[.[.J.= h.+.V.h -.:.:.R.4 ;.>.:.:.h R.:.:.:.t I.P L.`.].S.L.J.",
"].].[.L.Y h.g.N.h >.,.<.P.w ,.1.<.<.j E.>.>.>.u P.o.I.].I.R.].].",
"R.R.I.V.!.~.V.N.h 2.2.4.R.;.9.0.4.1.j ~.3.2.3.g P.+.H.S.V.].`.].",
"). X[.J.].].x.z.5.Q.9.n.R.<.0.e.q.q.5.~.9.9.9.g P.+.R.).c.I.`.!.",
"].].[.L.~.].j.N.d r.7.7.I.8.w.w.e.e.8.Y.7.6.n.g P.+.R.L.L.).L.V.",
"'.`.[.R.K.).x.J.l.t.X.f.R.f.h.h.h.h.k.Y.h.u.X.Y P.+.S.W.'.].`./.",
"I.L.S.B.!.[.c.K / ( ] ] ] ` [ ` ` ` [ ` ` ` G G S o.K.'.`.].].].",
".X X XV.`.I.%.J _ _ ! _ ! ! _ _ _ _ _ _ _ W Z Z V , j.J.`.].!.R.",
".X[.`.L.[.[.$.J _ _ _ _ _ _ _ _ _ _ _ _ _ E Z Z V M S.T.S.D.z.].",
" X`.R.).].[.$.J _ _ _ _ _ _ ) F F ) _ _ ! A Z Z V M J.L.~.].S.E.",
"W.I.K.L.R.R.$.H _ _ _ _ _ _ D c n F ! _ ! Z Z Z C M v.`.].'.'.Z.",
"[.].].!.J.I.%.D Q _ _ _ _ _ D b v m _ _ W Z Z Z S M v.^.].'.).V.",
" X].].I.R.[.F.~ ) [ [ [ [ [ { T T ( [ [ / E / E B : R.B./.T.V.`.",
"I.!.].S.[.`.F.^ | ..R &. . . . . . . . .@.F ) W S , ].R.Z.T.P.T.",
"(.W.R.V.U.`.W.@.{ ..#.}  . ....... ...| ' ^ ` / N l.].I.^.'.`.D.",
"].`.[.Z.`.U.U.d.# $ ; < < ; @ - $ @ $ @ X .     s z.L./.'.`.'.R.",
"'.`.'.P.].[.^.l &     . o . . O       . o     s ].U.S.S.^.'.T.D.",
"/.R.T./.].[.J.s   = r.+ % % % # $ % % % % r a.C.`.U.].`.K.V.v.D.",
" X[.~.S./.`.P.^.~.S.u.+ + % % % % % % % $ Y K.S.K.'.`.].`.D.'.~.",
"}.[.~.`.~.S.[.'.[.~.g.C.C.C.t.C.M.M.f.M.f.m.`.~.S.`.).`.U.).'.]."
};
