/* XPM */
static char *result[] = {
/* columns rows colors chars-per-pixel */
"32 32 162 2 ",
"   c #1F1C1B",
".  c #391109",
"X  c #281412",
"o  c #2C1A14",
"O  c #241E1D",
"+  c #381B16",
"@  c #25201E",
"#  c #2E2622",
"$  c #322521",
"%  c #382622",
"&  c #322824",
"*  c #392F29",
"=  c #37312D",
"-  c #3D322C",
";  c #353231",
":  c #3E3532",
">  c #44281E",
",  c #432C24",
"<  c #492A21",
"1  c #472E29",
"2  c #44342C",
"3  c #49342C",
"4  c #52362C",
"5  c #5C372E",
"6  c #423730",
"7  c #5C3E30",
"8  c #5A4035",
"9  c #56473B",
"0  c #5A463C",
"q  c #61483B",
"w  c #6B4B3C",
"e  c #754738",
"r  c #724C3E",
"t  c #78483A",
"y  c #514844",
"u  c #524D49",
"i  c #5D4F48",
"p  c #5D534B",
"a  c #654D43",
"s  c #6E4E47",
"d  c #734C41",
"f  c #6F5446",
"g  c #63564F",
"h  c #6D534A",
"j  c #6D5949",
"k  c #715140",
"l  c #7B5040",
"z  c #73554A",
"x  c #7A5D4E",
"c  c #635A56",
"v  c #755F54",
"b  c #745E58",
"n  c #6E6762",
"m  c #6E6865",
"M  c #8F5745",
"N  c #855847",
"B  c #895846",
"V  c #825E4D",
"C  c #8C594A",
"Z  c #935949",
"A  c #995D50",
"S  c #856556",
"D  c #896550",
"F  c #966A54",
"G  c #9F715B",
"H  c #AF6A5C",
"J  c #A67157",
"K  c #B8785C",
"L  c #926960",
"P  c #9B7062",
"I  c #857871",
"U  c #847C78",
"Y  c #A37462",
"T  c #AA7B6C",
"R  c #BB7560",
"E  c #BF7F67",
"W  c #B17D68",
"Q  c #C17861",
"!  c #CA7D65",
"~  c #C37C69",
"^  c #8D867D",
"/  c #B28066",
"(  c #BD8366",
")  c #BD826B",
"_  c #C28366",
"`  c #C58966",
"'  c #C6866B",
"]  c #D2856A",
"[  c #C98A74",
"{  c #D18C70",
"}  c #D98973",
"|  c #D08F7A",
" . c #DD8F78",
".. c #DE9675",
"X. c #EC8C74",
"o. c #E4957B",
"O. c #E99679",
"+. c #E69B7F",
"@. c #F2947E",
"#. c #F0A27E",
"$. c #8F8986",
"%. c #948A83",
"&. c #948D88",
"*. c #9B9590",
"=. c #9A9896",
"-. c #AA948C",
";. c #A99A92",
":. c #ACA59E",
">. c #B1A79E",
",. c #B3A89E",
"<. c #B5ACA3",
"1. c #B8AEA3",
"2. c #BAB1A6",
"3. c #B6B0AA",
"4. c #BEB5AC",
"5. c #BCB6B1",
"6. c #BFB8B0",
"7. c #BDB9B8",
"8. c #E29B83",
"9. c #EB9E82",
"0. c #F49F83",
"q. c #F89984",
"w. c #E9A488",
"e. c #F6A387",
"r. c #FAA985",
"t. c #F7A689",
"y. c #FAA688",
"u. c #FEAA8B",
"i. c #FFB38E",
"p. c #E4AD92",
"a. c #F2AD91",
"s. c #FFB293",
"d. c #FFB698",
"f. c #FFBB9B",
"g. c #C1B1A7",
"h. c #C0B7AE",
"j. c #C1B9AF",
"k. c #C0B7B1",
"l. c #C4BCB3",
"z. c #C8BFB5",
"x. c #C6BFB9",
"c. c #C9BFB8",
"v. c #FFBFA0",
"b. c #C6C0B7",
"n. c #C9C1B7",
"m. c #C7C0B9",
"M. c #CBC3BC",
"N. c #D0C8BF",
"B. c #FFC3A3",
"V. c #CDC7C1",
"C. c #CEC9C2",
"Z. c #D2CBC5",
"A. c #D9CCC5",
"S. c #D4CEC9",
"D. c #D6D2CC",
"F. c #D9D3CE",
"G. c #D7D5D1",
"H. c #DAD6D1",
"J. c #DDD9D4",
"K. c #DFDBD8",
"L. c #E1DCD5",
"P. c #E2DEDA",
/* pixels */
"H.D.M.Z.D.S.M.S.S.4.D.S.l.Z.Z.z.C.Z.N.4.Z.Z.h.A.S.k.Z.C.Z.4.Z.V.",
"P.J.l.Z.J.G.Z.D.G.z.G.D.V.D.D.x.C.F.A.c.D.A.h.G.S.C.Z.S.Z.>.A.S.",
"S.4.F.J.M.z.l.Z.S.l.Z.J.l.k.k.1.N.F.V.h.Z.M.<.N.z.x.h.4.V.Z.<.k.",
"F.S.S.J.F.C.H.C.4.M.k.2.N.A.A.h.1.k.c.2.k.Z.Z.1.Z.H.M.C.D.G.c.V.",
"L.H.k.F.h.G.F.G.c.J.H.C.C.F.F.M.c.F.D.Z.V.D.S.4.D.H.F.1.C.c.D.A.",
"J.F.l.M.J.z.Z.k.D.J.H.M.z.l.z.Z.V.A.D.S.h.D.S.h.4.J.6.Z.M.1.Z.C.",
"M.Z.M.K.J.H.h.c.k.S.C.S.J.H.l.S.S.k.l.l.c.k.h.D.C.2.Z.H.D.6.x.k.",
"L.L.M.H.J.M.Z.K.K.k.2.C.S.%.y m c n *.7.G.l.Z.D.F.m.k.F.C.M.S.S.",
"F.L.Z.4.z.k.J.J.J.n.F.<.p 2 - 6 6 6 = 9 =.m.4.D.F.6.S.l.2.M.D.Z.",
"n.M.2.Z.J.H.c.G.k.D.H.U 2 k r 8 3 * & = : n M.l.j.m.G.F.b.j.l.2.",
"J.J.C.D.G.H.z.l.C.4.3.q ' t.e.o.E N 3 & # : &.D.<.k.H.F.3.Z.D.Z.",
"H.J.S.n.D.z.M.H.G.x.i ( u.u.u.u.e.+.) q # : = <.M.D.l.M.,.Z.S.Z.",
"Z.M.z.k.C.Z.M.H.H.5.w #.i.f.d.s.u.9.| P 2 $ O $.J.F.7.M.M.4.k.4.",
"D.H.V.Z.H.H.x.S.x.<.F r.i.B.v.s.u.9.| T a * O ^ C.F.6.F.D.l.F.Z.",
"F.H.F.z.J.S.C.Z.Z.&.J y.s.f.d.s.t.8.[ Y 9 *   <.Z.4.6.D.Z.6.D.Z.",
"A.Z.C.4.S.S.J.J.G.z w W p.p.a.w.8.8.[ V 2 # ; D.F.F.S.l.4.j.M.M.",
"S.C.4.z.C.D.J.G.H.I o % 9 d D h 3 , 4 w p O ; D.G.H.N.M.<.z.M.M.",
"P.K.z.F.G.4.M.D.Z.%.< 1 3 R R % X X o 7 # @ u M.x.c.Z.Z.4.Z.D.V.",
"L.J.x.H.J.M.K.V.g.m.l 5 e @.H , . + > z 3 s <.z.C.k.F.D.m.M.D.l.",
"M.z.h.Z.M.Z.J.F.z.g.0.O.X.q.~ Z M t z z d -.C.F.H.5.Z.M.2.4.m.6.",
"J.F.F.2.M.m.J.n.D.A.o.] ! } C A O.o.Y h L <.Z.H.H.l.l.Z.6.Z.D.C.",
"L.J.Z.M.J.D.l.j.H.M.( K ` { F B C _ S b <.C.3.M.4.n.F.F.C.m.D.C.",
"l.M.n.Z.G.F.M.n.M.Z./ ..X.0. .Q _ F j ,.D.J.V.k.C.k.D.F.M.,.4.<.",
"F.F.M.j.M.D.n.J.F.2.;.G { ~ ] ) V x g j.V.S.x.G.F.D.2.6.,.M.C.M.",
"H.F.M.F.D.6.D.J.J.M.M.v Y / V a 6 c b.J.M.<.b.G.D.b.b.S.N.M.D.M.",
"Z.A.M.J.J.V.6.F.G.j.6.<.f f 0 : m 2.G.G.S.N.N.6.6.<.G.S.F.6.M.<.",
"L.D.g.Z.D.M.J.l.M.G.D.4.C.4.:.3.N.6.j.b.M.D.H.Z.b.Z.6.S.6.l.S.N.",
"L.F.N.Z.l.J.J.F.b.J.J.M.S.J.G.V.b.H.S.b.M.D.F.l.F.F.S.2.Z.6.F.C.",
"H.C.J.J.C.C.J.C.2.D.Z.l.6.N.6.2.6.n.D.n.1.4.l.<.C.D.M.C.F.C.C.m.",
"A.j.S.Z.m.l.M.C.C.2.N.S.6.N.S.6.b.b.4.4.F.S.l.C.C.j.2.l.N.M.4.M.",
"L.J.6.D.J.G.S.J.J.b.J.J.M.D.G.M.N.H.F.b.J.D.m.G.F.M.Z.D.M.1.D.C.",
"H.J.C.Z.F.C.n.Z.Z.4.D.Z.l.M.N.M.N.Z.Z.l.C.C.6.C.C.l.M.C.C.5.M.6."
};
