/* XPM */
static char *result[] = {
/* columns rows colors chars-per-pixel */
"32 32 66 1 ",
"  c #2B9CD8",
". c #36A5DD",
"X c #3BA9E0",
"o c #45B3E6",
"O c #4BB9EA",
"+ c #51BCEB",
"@ c #65BAE5",
"# c #6ABDE7",
"$ c #5BC1EC",
"% c #64C5ED",
"& c #6FCBEF",
"* c #75CFF0",
"= c #7CD4F2",
"- c #B1A79E",
"; c #B6ADA2",
": c #B8AFA4",
"> c #BAB0A5",
", c #BEB5AB",
"< c #BFB8B0",
"1 c #B9BCBE",
"2 c #C0B7AE",
"3 c #C1B9AF",
"4 c #C3BBB3",
"5 c #C8BFB5",
"6 c #C5BFB8",
"7 c #C9BFB8",
"8 c #C9C0B7",
"9 c #C7C0B9",
"0 c #CAC3BC",
"q c #D0C8BF",
"w c #9EBBCF",
"e c #9BC7D8",
"r c #9DC9DA",
"t c #A4C3CF",
"y c #B7C5C8",
"u c #BAC6CA",
"i c #A5C4D0",
"p c #ABC5D9",
"a c #A8CFDF",
"s c #B5D3DE",
"d c #8BCFE8",
"f c #99CEE1",
"g c #81D2EE",
"h c #8FD1EA",
"j c #92D3EC",
"k c #82D3F0",
"l c #A6D2E4",
"z c #ACD4E5",
"x c #B7D5E1",
"c c #C3C7C6",
"v c #CDC6C0",
"b c #CFC9C2",
"n c #C3CACB",
"m c #D2CBC5",
"M c #D4CEC9",
"N c #D7D1CC",
"B c #D9D3CD",
"V c #C6CFD3",
"C c #CBCFD1",
"Z c #C7D2D6",
"A c #CED4D6",
"S c #CBD6DB",
"D c #DAD6D1",
"F c #DDD9D5",
"G c #DFDBD8",
"H c #E2DDD9",
/* pixels */
"DN0mNN9MM,Mm6mm4bmq,mm2Mm3mmm,mv",
"HF4mFBbND5DNvMN7mBM7MM3DNvmMm-Mm",
"M,BF084sV4mD422:7Nq2m0;np73,vm;4",
"BMMFNvx=k03,bBm3:27,3mm==s0vNB7v",
"FF4B<DZgfFFvmBC@#CNmvBmfkSN;b7NM",
"FB30F5b4MFD753wOOpNM2BM2,D3M0;mb",
"0m0GFD,02MbNFFy##143723Bb:bDN473",
"FH9DG0mGF4:0BbmDB7mDB4bBN04Nb0Mm",
"BHq244GGF8Bq4<mDB94DD0,NN<N4>vNb",
"80,qSs8B3MBFys5m05b0utm440BByi4>",
"FFql=g84v<Dl=gB<,DBl==BB;4Bl=kNm",
"DFl===cFD9r===n90Nz===A00Mr===Vb",
"ah====gzzh====gzzd====grzj====ke",
"================================",
"================================",
"================================",
"================================",
"==O$*=====O$*=====O$*=====O$====",
"==OOO*====OOO*====OOO*====OOO*==",
"=%OOO+&==%OOO+&*=%OOOO&==%OOO+&=",
"OOOOOOOOOOOOOOOOOOOOOOOOOOOOOOOO",
"OOOOOOOOOOOOOOOOOOOOOOOOOOOOOOOO",
"OOOOOOOOOOOOOOOOOOOOOOOOOOOOOOOO",
"OOOOOOOOOOOOOOOOOOOOOOOOOOOOOOOO",
"OOOo. OOOOOOX OOOOOO. OOOOOo. OO",
"OOO   OOOOo   OOOOo   OOOOo   OO",
"Oo    XOoX    XOOo    XoOo    XO",
"                                ",
"                                ",
"                                ",
"                                ",
"                                "
};
